<svg width="365" height="151" viewBox="0 0 365 151" fill="none" xmlns="http://www.w3.org/2000/svg">
<path d="M64.898 121.711L64.8548 131.122L64.898 140.51L72.2736 138.529C78.3984 136.884 79.0885 135.759 79.0885 127.299C79.0885 118.84 78.3984 118.085 72.2736 119.73L64.898 121.711ZM55.8402 151V116.087L73.2225 111.418C85.5152 108.117 88.5776 110.785 88.5776 124.751C88.5776 138.716 85.5152 143.03 73.2225 146.331L55.8402 151Z" fill="black"/>
<path d="M92.0224 106.369L119.627 98.9545V107.011L101.08 111.993V117.364L117.902 112.846V120.455L101.08 124.973V130.792L119.713 125.788V133.844L92.0224 141.282V106.369Z" fill="black"/>
<path d="M138.289 121.783C144.155 120.208 144.845 119.754 144.845 117.202C144.845 115.188 143.162 114.79 136.822 115.194C125.823 115.866 123.063 114.459 123.063 107.969C123.063 99.5983 126.255 96.6373 138.547 93.3357C150.926 90.0108 154.118 91.7049 154.118 101.91L144.629 104.459C144.629 99.8038 143.982 99.4852 138.547 100.945C133.199 102.381 132.552 102.869 132.552 105.509C132.552 107.345 133.803 107.68 138.375 107.437C150.969 106.605 154.334 108.119 154.334 115.146C154.334 123.113 151.099 125.952 138.547 129.323C125.651 132.787 122.33 131.217 122.33 121.415L131.819 118.866C131.819 123.073 132.509 123.336 138.289 121.783Z" fill="black"/>
<path d="M157.774 123.622V88.7088L166.832 86.276V99.346L179.771 95.8705V82.8005L188.829 80.3677V115.281L179.771 117.714V103.927L166.832 107.403V121.189L157.774 123.622Z" fill="black"/>
<path d="M193.156 79.2056L212.393 74.0388C221.364 71.6291 223.607 73.3542 223.607 82.6644C223.607 91.706 221.537 94.6343 213.169 97.3294L202.214 100.272V111.686L193.156 114.119V79.2056ZM202.214 92.2151L210.064 90.1066C214.118 89.0177 214.549 88.5437 214.549 85.142C214.549 81.4716 214.118 81.1846 210.064 82.2736L202.214 84.382V92.2151Z" fill="black"/>
<path d="M248.648 64.301L259.431 96.3178L249.08 99.0982L247.268 92.7812L234.328 96.2566L232.301 103.605L222.553 106.223L233.638 68.3325L248.648 64.301ZM236.657 88.0218L245.025 85.7743L241.014 73.9608L240.755 74.0303L236.657 88.0218Z" fill="black"/>
<path d="M261.392 95.7911V60.878L269.976 58.5727L284.856 73.6438L285.115 73.5743V54.5064L294.173 52.0736V86.9866L285.633 89.2804L270.709 74.2656L270.45 74.3351V93.3583L261.392 95.7911Z" fill="black"/>
<path d="M307.559 56.5351L307.516 65.9463L307.559 75.3344L314.935 73.3534C321.06 71.7083 321.75 70.583 321.75 62.1233C321.75 53.6636 321.06 52.909 314.935 54.5541L307.559 56.5351ZM298.501 85.8241V50.911L315.884 46.2423C328.176 42.9407 331.239 45.6094 331.239 59.5747C331.239 73.5399 328.176 77.8537 315.884 81.1554L298.501 85.8241Z" fill="black"/>
<path d="M334.684 41.1929L362.288 33.7786V41.8355L343.741 46.8169V52.1882L360.563 47.6701V55.2794L343.741 59.7974V65.6163L362.375 60.6116V68.6685L334.684 76.1059V41.1929Z" fill="black"/>
<path d="M36.2108 65.5977C53.0984 61.0619 60.4187 62.1026 72.8811 70.8497C81.7632 77.0838 82.0661 81.0785 74.2491 84.1803C83.4503 82.444 90.9206 83.5113 97.8059 88.3439L111.026 97.6226L93.1639 102.42L80.7703 93.7213C74.849 89.5652 73.3362 89.3702 64.4865 91.7471L51.8208 95.149L70.7554 108.439L53.7055 113.018L0 75.3235L36.2108 65.5977ZM40.8043 87.4167L55.5809 83.4479C63.2128 81.3981 63.405 80.7451 57.8967 76.8789C52.595 73.1578 51.1635 72.9409 43.5316 74.9908L28.755 78.9596L40.8043 87.4167Z" fill="black"/>
<path d="M110.086 45.7558L184.089 77.9988L164.603 83.2324L150.727 76.8026L126.37 83.3447L133.02 91.7152L114.671 96.6435L81.8314 53.3445L110.086 45.7558ZM119.05 73.9516L134.8 69.7211L107.42 57.8311L106.933 57.9619L119.05 73.9516Z" fill="black"/>
<path d="M187.78 77.0073L134.075 39.3126L151.125 34.7332L171.23 48.8445L195.587 42.3025L175.482 28.1912L192.532 23.6117L246.237 61.3064L229.187 65.8858L207.98 51.0013L183.623 57.5433L204.83 72.4278L187.78 77.0073Z" fill="black"/>
<path d="M287.72 28.7823C306.035 41.6371 304.977 46.3313 282.488 52.3718C259.998 58.4123 249.852 56.7274 231.537 43.8725L199.864 21.6423L216.914 17.0629L248.587 39.2931C258.639 46.3488 260.877 46.8167 270.783 44.1563C280.688 41.4959 280.723 40.4173 270.67 33.3617L238.998 11.1315L256.048 6.55207L287.72 28.7823Z" fill="black"/>
<path d="M263.392 4.57941L280.442 0L321.754 28.9959L352.606 20.7094L365 29.4081L317.098 42.2741L263.392 4.57941Z" fill="black"/>
</svg>
